<svg viewBox="0 0 99 108" xmlns="http://www.w3.org/2000/svg">
<path d="M98.4565 76.4936C98.3216 76.1491 98.0666 75.8653 97.7385 75.6947C97.4105 75.524 97.0317 75.4781 96.6725 75.5655C96.6015 75.5818 96.5319 75.6037 96.4643 75.6309L72.8618 84.9001L72.2315 83.3056C72.1901 83.1998 72.1283 83.1031 72.0495 83.0211C71.9708 82.9392 71.8767 82.8735 71.7726 82.828C71.6685 82.7824 71.5565 82.7578 71.4429 82.7555C71.3293 82.7533 71.2164 82.7734 71.1105 82.8148C71.0047 82.8562 70.9081 82.9181 70.8262 82.9968C70.7443 83.0756 70.6786 83.1698 70.6331 83.2739C70.5875 83.378 70.5629 83.4901 70.5607 83.6038C70.5584 83.7174 70.5786 83.8304 70.6199 83.9363L71.2146 85.4891C70.6199 85.7092 69.8052 85.9888 68.8359 86.3339C68.7903 86.3501 68.7484 86.3753 68.7126 86.408C68.6769 86.4407 68.648 86.4802 68.6278 86.5243V86.6016L67.4385 87.0181C63.3947 88.4162 57.2874 90.4747 50.1038 92.7295C42.4326 90.3497 35.8971 88.1365 31.669 86.667L30.4797 86.2506C30.483 86.2249 30.483 86.1989 30.4797 86.1732C30.4594 86.1292 30.4306 86.0897 30.3948 86.057C30.3591 86.0243 30.3172 85.9991 30.2715 85.9829L27.8929 85.1381L28.4875 83.5853C28.5719 83.3707 28.5676 83.1313 28.4756 82.9199C28.3836 82.7085 28.2114 82.5423 27.9969 82.4578C27.7824 82.3734 27.5432 82.3777 27.3319 82.4698C27.1205 82.5618 26.9544 82.7341 26.87 82.9487L26.2753 84.5491L2.55393 75.2799C2.48839 75.2527 2.42077 75.2308 2.35174 75.2145C1.99256 75.1297 1.61489 75.1767 1.28746 75.3471C0.960038 75.5174 0.704632 75.7997 0.567732 76.1426L0.270397 76.8981C0.197295 77.0852 0.161767 77.2849 0.165842 77.4858C0.169917 77.6866 0.213517 77.8847 0.294148 78.0687C0.374779 78.2527 0.490861 78.419 0.63576 78.5581C0.780658 78.6972 0.951531 78.8063 1.13862 78.8793L24.747 88.1485L24.0929 89.8024C24.0094 90.017 24.0145 90.256 24.107 90.4668C24.1996 90.6777 24.372 90.8431 24.5865 90.9268C24.6223 90.944 24.6603 90.9561 24.6995 90.9625C24.9027 91.0104 25.1164 90.984 25.3018 90.8879C25.4872 90.7919 25.6322 90.6326 25.7104 90.439L26.3408 88.7434L28.7194 89.5823H28.7551C28.8082 89.5928 28.8631 89.5914 28.9155 89.578C28.968 89.5646 29.0168 89.5396 29.0584 89.5049L29.1595 89.5406L30.2834 89.9273C33.6552 91.1172 38.4602 92.7176 44.1274 94.5322C37.1935 96.6323 29.5877 98.786 22.0235 100.66L20.061 101.136C13.8943 102.623 7.79893 103.902 2.1674 104.789L1.00779 104.967C0.976022 104.975 0.947203 104.991 0.92516 105.015C0.903117 105.039 0.888894 105.069 0.884377 105.102C0.87986 105.134 0.885263 105.167 0.899871 105.196C0.914479 105.225 0.9376 105.249 0.966163 105.265L3.55893 106.687C3.74526 106.782 3.9296 106.871 4.11197 106.955C5.2369 107.433 6.47792 107.57 7.67999 107.347C12.0806 106.544 16.6893 105.562 21.3574 104.42C31.2884 102.04 41.4038 99.0656 50.08 96.3943C58.4946 98.9942 68.158 101.779 77.6608 104.069C82.3112 105.188 86.9199 106.193 91.3383 106.996C92.5409 107.217 93.782 107.078 94.9063 106.598C95.0962 106.52 95.2809 106.431 95.4593 106.33L98.0521 104.908C98.0815 104.894 98.1058 104.871 98.1214 104.843C98.1371 104.814 98.1435 104.782 98.1395 104.749C98.1356 104.717 98.1215 104.687 98.0994 104.663C98.0773 104.639 98.0483 104.623 98.0164 104.616L96.8628 104.444C91.2253 103.557 85.1299 102.278 78.9632 100.791L76.9472 100.333C69.8112 98.548 62.5978 96.5431 55.9732 94.55C61.1468 92.8842 65.5415 91.3968 68.6813 90.314L69.8052 89.9214L69.9063 89.8857C69.9475 89.9212 69.9962 89.9466 70.0489 89.9601C70.1015 89.9735 70.1565 89.9745 70.2096 89.963H70.2453L72.624 89.1242L73.3197 90.8138C73.3989 91.007 73.5437 91.1661 73.7287 91.263C73.9136 91.3599 74.1268 91.3883 74.3307 91.3433L74.4437 91.3016C74.6581 91.218 74.8306 91.0525 74.9231 90.8416C75.0157 90.6308 75.0208 90.3918 74.9373 90.1772L74.2891 88.5292L97.8915 79.26C98.2698 79.1114 98.5737 78.8187 98.7364 78.4461C98.8992 78.0736 98.9076 77.6517 98.7598 77.2729L98.4565 76.4936Z" />
<path d="M16.7189 80.3726L20.846 65.9096L21.3752 64.0474L25.7698 48.6741L25.9958 47.8769L28.3745 39.5894C35.0497 42.5009 42.2509 44.0114 49.5329 44.0276C56.8045 44.0101 63.9953 42.5016 70.6615 39.5953L71.6725 43.2185L73.6051 49.983L73.6944 50.2983L77.6192 64.0295L78.1484 65.8917L82.2814 80.3547C82.2814 80.3547 89.2866 76.5054 92.4324 69.1341L88.0319 59.9066L82.4063 48.0911C83.7536 47.5571 85.1763 47.2379 86.6225 47.1451L85.0526 32.4144C81.9616 32.7978 79.0739 34.1589 76.8104 36.2994V34.9845C76.7945 30.9811 75.5786 27.0745 73.3197 23.7699C74.8718 18.4868 75.4367 12.2995 75.4367 5.45764C75.4367 3.91674 75.3654 2.39369 75.2286 0.900391C74.6995 7.41917 72.7444 13.7419 69.5019 19.4209C64.5245 14.9231 57.4479 12.0972 49.5686 12.0972H49.4437C41.5643 12.0972 34.4818 14.9231 29.5103 19.4209C26.2714 13.7437 24.3223 7.4224 23.8015 0.906339C23.6647 2.39964 23.5933 3.92269 23.5933 5.46359C23.5933 12.2876 24.188 18.4095 25.8115 23.6271C23.4776 26.957 22.2105 30.9178 22.178 34.9845V36.3291L22.1304 36.4243C19.8733 34.2884 16.9946 32.9276 13.9121 32.5393L12.3422 47.2701C13.7821 47.3622 15.1987 47.6794 16.5405 48.2101L6.57981 69.152C9.68994 76.5352 16.7189 80.3726 16.7189 80.3726Z"/>
<path d="M38.4363 81.3423H60.5938C63.2936 75.9165 72.3623 67.3196 72.4872 67.1946C73.0718 65.0624 73.3678 62.8613 73.3673 60.6503V54.927C73.3673 54.927 64.364 54.5878 58.3578 49.9354H40.6426C34.6364 54.5878 25.6331 54.927 25.6331 54.927V60.6503C25.6323 62.8613 25.9283 65.0624 26.5132 67.1946C26.5132 67.1946 35.7187 75.8748 38.4363 81.3423ZM57.4658 58.2229C57.4658 58.2229 64.5424 66.1475 63.9358 66.4391C63.3292 66.7306 57.4658 77.4395 57.4658 77.4395V58.2229ZM51.1563 58.2229H54.2129V77.4395H51.1563V58.2229ZM44.7517 58.2229H47.8024V77.4395H44.7755L44.7517 58.2229ZM41.4989 58.2229V77.4395C41.4989 77.4395 35.6354 66.7306 35.0289 66.4391C34.4223 66.1475 41.5167 58.2229 41.5167 58.2229H41.4989Z"/>
</svg>
